<mxfile host="app.diagrams.net" modified="2024-03-02T17:17:10.908Z" agent="Mozilla/5.0 (Windows NT 10.0; Win64; x64) AppleWebKit/537.36 (KHTML, like Gecko) Chrome/122.0.0.0 Safari/537.36" etag="2IlkY70CPzqj3pjiTIVu" version="24.0.0" type="device">
  <diagram name="Page-1" id="8Vu4vMksr103dDorf9M_">
    <mxGraphModel dx="1434" dy="780" grid="1" gridSize="10" guides="1" tooltips="1" connect="1" arrows="1" fold="1" page="1" pageScale="1" pageWidth="850" pageHeight="1100" math="0" shadow="0">
      <root>
        <mxCell id="0" />
        <mxCell id="1" parent="0" />
        <mxCell id="jOVh82vGOGiOQ1cpybXk-29" value="Actor" style="shape=umlActor;verticalLabelPosition=bottom;verticalAlign=top;html=1;outlineConnect=0;" vertex="1" parent="1">
          <mxGeometry x="150" y="60" width="30" height="60" as="geometry" />
        </mxCell>
        <mxCell id="jOVh82vGOGiOQ1cpybXk-35" style="edgeStyle=orthogonalEdgeStyle;rounded=0;orthogonalLoop=1;jettySize=auto;html=1;exitX=0.5;exitY=1;exitDx=0;exitDy=0;entryX=0.5;entryY=0;entryDx=0;entryDy=0;" edge="1" parent="1" source="jOVh82vGOGiOQ1cpybXk-30" target="jOVh82vGOGiOQ1cpybXk-32">
          <mxGeometry relative="1" as="geometry" />
        </mxCell>
        <mxCell id="jOVh82vGOGiOQ1cpybXk-36" value="press&lt;div&gt;inventory&lt;/div&gt;" style="edgeLabel;html=1;align=center;verticalAlign=middle;resizable=0;points=[];" vertex="1" connectable="0" parent="jOVh82vGOGiOQ1cpybXk-35">
          <mxGeometry x="-0.0971" y="1" relative="1" as="geometry">
            <mxPoint as="offset" />
          </mxGeometry>
        </mxCell>
        <mxCell id="jOVh82vGOGiOQ1cpybXk-30" value="Cans Interface" style="rounded=0;whiteSpace=wrap;html=1;" vertex="1" parent="1">
          <mxGeometry x="105" y="180" width="120" height="60" as="geometry" />
        </mxCell>
        <mxCell id="jOVh82vGOGiOQ1cpybXk-40" style="edgeStyle=orthogonalEdgeStyle;rounded=0;orthogonalLoop=1;jettySize=auto;html=1;exitX=1;exitY=0.5;exitDx=0;exitDy=0;entryX=0;entryY=0.5;entryDx=0;entryDy=0;" edge="1" parent="1" source="jOVh82vGOGiOQ1cpybXk-31" target="jOVh82vGOGiOQ1cpybXk-39">
          <mxGeometry relative="1" as="geometry" />
        </mxCell>
        <mxCell id="jOVh82vGOGiOQ1cpybXk-31" value="Can price" style="rounded=0;whiteSpace=wrap;html=1;" vertex="1" parent="1">
          <mxGeometry x="200" y="320" width="120" height="60" as="geometry" />
        </mxCell>
        <mxCell id="jOVh82vGOGiOQ1cpybXk-66" style="edgeStyle=orthogonalEdgeStyle;rounded=0;orthogonalLoop=1;jettySize=auto;html=1;exitX=1;exitY=0.5;exitDx=0;exitDy=0;entryX=0;entryY=0.5;entryDx=0;entryDy=0;" edge="1" parent="1" source="jOVh82vGOGiOQ1cpybXk-32" target="jOVh82vGOGiOQ1cpybXk-31">
          <mxGeometry relative="1" as="geometry" />
        </mxCell>
        <mxCell id="jOVh82vGOGiOQ1cpybXk-32" value="Cans volume&amp;nbsp;" style="rounded=0;whiteSpace=wrap;html=1;" vertex="1" parent="1">
          <mxGeometry x="10" y="320" width="120" height="60" as="geometry" />
        </mxCell>
        <mxCell id="jOVh82vGOGiOQ1cpybXk-42" style="edgeStyle=orthogonalEdgeStyle;rounded=0;orthogonalLoop=1;jettySize=auto;html=1;exitX=0.5;exitY=1;exitDx=0;exitDy=0;" edge="1" parent="1" source="jOVh82vGOGiOQ1cpybXk-37" target="jOVh82vGOGiOQ1cpybXk-39">
          <mxGeometry relative="1" as="geometry" />
        </mxCell>
        <mxCell id="jOVh82vGOGiOQ1cpybXk-59" style="edgeStyle=orthogonalEdgeStyle;rounded=0;orthogonalLoop=1;jettySize=auto;html=1;exitX=0;exitY=0.5;exitDx=0;exitDy=0;entryX=1;entryY=0.5;entryDx=0;entryDy=0;" edge="1" parent="1" source="jOVh82vGOGiOQ1cpybXk-37" target="jOVh82vGOGiOQ1cpybXk-58">
          <mxGeometry relative="1" as="geometry">
            <Array as="points">
              <mxPoint x="400" y="370" />
              <mxPoint x="340" y="370" />
              <mxPoint x="340" y="550" />
            </Array>
          </mxGeometry>
        </mxCell>
        <mxCell id="jOVh82vGOGiOQ1cpybXk-37" value="Money counter" style="rounded=0;whiteSpace=wrap;html=1;" vertex="1" parent="1">
          <mxGeometry x="400" y="320" width="120" height="60" as="geometry" />
        </mxCell>
        <mxCell id="jOVh82vGOGiOQ1cpybXk-44" style="edgeStyle=orthogonalEdgeStyle;rounded=0;orthogonalLoop=1;jettySize=auto;html=1;exitX=0.5;exitY=1;exitDx=0;exitDy=0;entryX=0.5;entryY=0;entryDx=0;entryDy=0;" edge="1" parent="1" source="jOVh82vGOGiOQ1cpybXk-39" target="jOVh82vGOGiOQ1cpybXk-43">
          <mxGeometry relative="1" as="geometry" />
        </mxCell>
        <mxCell id="jOVh82vGOGiOQ1cpybXk-50" style="edgeStyle=orthogonalEdgeStyle;rounded=0;orthogonalLoop=1;jettySize=auto;html=1;exitX=1;exitY=0.5;exitDx=0;exitDy=0;" edge="1" parent="1" source="jOVh82vGOGiOQ1cpybXk-39" target="jOVh82vGOGiOQ1cpybXk-48">
          <mxGeometry relative="1" as="geometry" />
        </mxCell>
        <mxCell id="jOVh82vGOGiOQ1cpybXk-51" style="edgeStyle=orthogonalEdgeStyle;rounded=0;orthogonalLoop=1;jettySize=auto;html=1;exitX=1;exitY=0.5;exitDx=0;exitDy=0;entryX=0;entryY=0.5;entryDx=0;entryDy=0;" edge="1" parent="1" source="jOVh82vGOGiOQ1cpybXk-39" target="jOVh82vGOGiOQ1cpybXk-49">
          <mxGeometry relative="1" as="geometry" />
        </mxCell>
        <mxCell id="jOVh82vGOGiOQ1cpybXk-39" value="Give can checker" style="rounded=0;whiteSpace=wrap;html=1;" vertex="1" parent="1">
          <mxGeometry x="400" y="420" width="120" height="60" as="geometry" />
        </mxCell>
        <mxCell id="jOVh82vGOGiOQ1cpybXk-62" style="edgeStyle=orthogonalEdgeStyle;rounded=0;orthogonalLoop=1;jettySize=auto;html=1;exitX=0;exitY=0.5;exitDx=0;exitDy=0;entryX=1;entryY=0.25;entryDx=0;entryDy=0;" edge="1" parent="1" source="jOVh82vGOGiOQ1cpybXk-43" target="jOVh82vGOGiOQ1cpybXk-58">
          <mxGeometry relative="1" as="geometry" />
        </mxCell>
        <mxCell id="jOVh82vGOGiOQ1cpybXk-43" value="change" style="rounded=0;whiteSpace=wrap;html=1;" vertex="1" parent="1">
          <mxGeometry x="400" y="510" width="120" height="60" as="geometry" />
        </mxCell>
        <mxCell id="jOVh82vGOGiOQ1cpybXk-46" style="edgeStyle=orthogonalEdgeStyle;rounded=0;orthogonalLoop=1;jettySize=auto;html=1;exitX=0.5;exitY=1;exitDx=0;exitDy=0;entryX=0.5;entryY=0;entryDx=0;entryDy=0;" edge="1" parent="1" source="jOVh82vGOGiOQ1cpybXk-45" target="jOVh82vGOGiOQ1cpybXk-37">
          <mxGeometry relative="1" as="geometry" />
        </mxCell>
        <mxCell id="jOVh82vGOGiOQ1cpybXk-45" value="Money interface" style="rounded=0;whiteSpace=wrap;html=1;" vertex="1" parent="1">
          <mxGeometry x="400" y="180" width="120" height="60" as="geometry" />
        </mxCell>
        <mxCell id="jOVh82vGOGiOQ1cpybXk-65" style="edgeStyle=orthogonalEdgeStyle;rounded=0;orthogonalLoop=1;jettySize=auto;html=1;entryX=0.5;entryY=1;entryDx=0;entryDy=0;" edge="1" parent="1" source="jOVh82vGOGiOQ1cpybXk-48" target="jOVh82vGOGiOQ1cpybXk-32">
          <mxGeometry relative="1" as="geometry" />
        </mxCell>
        <mxCell id="jOVh82vGOGiOQ1cpybXk-48" value="Give a can" style="rounded=0;whiteSpace=wrap;html=1;" vertex="1" parent="1">
          <mxGeometry x="600" y="360" width="120" height="60" as="geometry" />
        </mxCell>
        <mxCell id="jOVh82vGOGiOQ1cpybXk-64" style="edgeStyle=orthogonalEdgeStyle;rounded=0;orthogonalLoop=1;jettySize=auto;html=1;exitX=0.5;exitY=1;exitDx=0;exitDy=0;entryX=0.5;entryY=1;entryDx=0;entryDy=0;" edge="1" parent="1" source="jOVh82vGOGiOQ1cpybXk-49" target="jOVh82vGOGiOQ1cpybXk-58">
          <mxGeometry relative="1" as="geometry" />
        </mxCell>
        <mxCell id="jOVh82vGOGiOQ1cpybXk-49" value="Give change" style="rounded=0;whiteSpace=wrap;html=1;" vertex="1" parent="1">
          <mxGeometry x="600" y="480" width="120" height="60" as="geometry" />
        </mxCell>
        <mxCell id="jOVh82vGOGiOQ1cpybXk-54" style="edgeStyle=orthogonalEdgeStyle;rounded=0;orthogonalLoop=1;jettySize=auto;html=1;exitX=0.5;exitY=1;exitDx=0;exitDy=0;entryX=0.5;entryY=0;entryDx=0;entryDy=0;" edge="1" parent="1" source="jOVh82vGOGiOQ1cpybXk-52" target="jOVh82vGOGiOQ1cpybXk-53">
          <mxGeometry relative="1" as="geometry" />
        </mxCell>
        <mxCell id="jOVh82vGOGiOQ1cpybXk-52" value="Give money back" style="rounded=0;whiteSpace=wrap;html=1;" vertex="1" parent="1">
          <mxGeometry x="640" y="180" width="120" height="60" as="geometry" />
        </mxCell>
        <mxCell id="jOVh82vGOGiOQ1cpybXk-55" style="edgeStyle=orthogonalEdgeStyle;rounded=0;orthogonalLoop=1;jettySize=auto;html=1;entryX=1;entryY=0.5;entryDx=0;entryDy=0;" edge="1" parent="1" source="jOVh82vGOGiOQ1cpybXk-53" target="jOVh82vGOGiOQ1cpybXk-37">
          <mxGeometry relative="1" as="geometry" />
        </mxCell>
        <mxCell id="jOVh82vGOGiOQ1cpybXk-56" style="edgeStyle=orthogonalEdgeStyle;rounded=0;orthogonalLoop=1;jettySize=auto;html=1;exitX=1;exitY=0.5;exitDx=0;exitDy=0;entryX=1;entryY=0.5;entryDx=0;entryDy=0;" edge="1" parent="1" source="jOVh82vGOGiOQ1cpybXk-53" target="jOVh82vGOGiOQ1cpybXk-49">
          <mxGeometry relative="1" as="geometry" />
        </mxCell>
        <mxCell id="jOVh82vGOGiOQ1cpybXk-53" value="Give money back operation" style="rounded=0;whiteSpace=wrap;html=1;" vertex="1" parent="1">
          <mxGeometry x="590" y="270" width="120" height="60" as="geometry" />
        </mxCell>
        <mxCell id="jOVh82vGOGiOQ1cpybXk-58" value="change vault" style="rounded=0;whiteSpace=wrap;html=1;" vertex="1" parent="1">
          <mxGeometry x="140" y="520" width="120" height="60" as="geometry" />
        </mxCell>
      </root>
    </mxGraphModel>
  </diagram>
</mxfile>
